<svg width="200" height="200" viewBox="0 0 200 200" xmlns="http://www.w3.org/2000/svg">
  <!-- Background circle -->
  <circle cx="100" cy="100" r="95" fill="#5C48F6" />
  <circle cx="100" cy="100" r="87" fill="#FFFFFF" />
  
  <!-- Municipality buildings silhouette -->
  <g fill="#5C48F6">
    <!-- City building (left) -->
    <rect x="55" y="75" width="30" height="70" rx="2" />
    <rect x="60" y="65" width="20" height="10" rx="2" />
    <rect x="65" y="55" width="10" height="10" rx="2" />
    
    <!-- Windows for city building -->
    <rect x="60" y="85" width="5" height="5" fill="#FFFFFF" />
    <rect x="75" y="85" width="5" height="5" fill="#FFFFFF" />
    <rect x="60" y="95" width="5" height="5" fill="#FFFFFF" />
    <rect x="75" y="95" width="5" height="5" fill="#FFFFFF" />
    <rect x="60" y="105" width="5" height="5" fill="#FFFFFF" />
    <rect x="75" y="105" width="5" height="5" fill="#FFFFFF" />
    <rect x="60" y="115" width="5" height="5" fill="#FFFFFF" />
    <rect x="75" y="115" width="5" height="5" fill="#FFFFFF" />
    <rect x="67.5" y="60" width="5" height="5" fill="#FFFFFF" />
    
    <!-- Town building (right) -->
    <rect x="115" y="90" width="30" height="55" rx="2" />
    <path d="M115 90 L130 75 L145 90 Z" />
    
    <!-- Windows for town building -->
    <rect x="120" y="100" width="5" height="5" fill="#FFFFFF" />
    <rect x="135" y="100" width="5" height="5" fill="#FFFFFF" />
    <rect x="120" y="110" width="5" height="5" fill="#FFFFFF" />
    <rect x="135" y="110" width="5" height="5" fill="#FFFFFF" />
    <rect x="120" y="120" width="5" height="5" fill="#FFFFFF" />
    <rect x="135" y="120" width="5" height="5" fill="#FFFFFF" />
    <rect x="127.5" y="83" width="5" height="5" fill="#FFFFFF" />
    
    <!-- Subdistrict building (center) -->
    <rect x="85" y="100" width="30" height="45" rx="2" />
    <rect x="90" y="90" width="20" height="10" rx="1" />
    
    <!-- Windows for subdistrict building -->
    <rect x="90" y="105" width="5" height="5" fill="#FFFFFF" />
    <rect x="105" y="105" width="5" height="5" fill="#FFFFFF" />
    <rect x="90" y="115" width="5" height="5" fill="#FFFFFF" />
    <rect x="105" y="115" width="5" height="5" fill="#FFFFFF" />
    <rect x="90" y="125" width="5" height="5" fill="#FFFFFF" />
    <rect x="105" y="125" width="5" height="5" fill="#FFFFFF" />
    <rect x="97.5" y="95" width="5" height="5" fill="#FFFFFF" />
  </g>
  
  <!-- Roads -->
  <path d="M35 145 L165 145" stroke="#5C48F6" stroke-width="5" stroke-linecap="round" />
  <path d="M70 145 L70 170" stroke="#5C48F6" stroke-width="3" stroke-linecap="round" />
  <path d="M100 145 L100 170" stroke="#5C48F6" stroke-width="3" stroke-linecap="round" />
  <path d="M130 145 L130 170" stroke="#5C48F6" stroke-width="3" stroke-linecap="round" />
  
  <!-- Location pin -->
  <circle cx="100" cy="170" r="15" fill="#FF5062" />
  <circle cx="100" cy="170" r="8" fill="white" />
  
  <!-- Text elements -->
  <text x="100" y="40" font-family="Prompt, sans-serif" font-size="16" font-weight="600" text-anchor="middle" fill="#5C48F6">เทศบาลใกล้ฉัน</text>
</svg> 